<?xml version="1.0" standalone="no"?>
<!DOCTYPE svg PUBLIC "-//W3C//DTD SVG 20010904//EN"
 "http://www.w3.org/TR/2001/REC-SVG-20010904/DTD/svg10.dtd">
<svg version="1.0" xmlns="http://www.w3.org/2000/svg"
 width="2000.000000pt" height="1500.000000pt" viewBox="0 0 2000.000000 1500.000000"
 preserveAspectRatio="xMidYMid meet">

<g transform="translate(0.000000,1500.000000) scale(0.100000,-0.100000)"
fill="#000000" stroke="none">
<path d="M0 7500 l0 -7500 10000 0 10000 0 0 7500 0 7500 -10000 0 -10000 0 0
-7500z m9982 4533 c24 -9 73 -40 111 -70 80 -64 125 -85 175 -81 l37 3 0 -105
c-1 -132 -18 -172 -89 -209 -46 -24 -54 -25 -239 -23 -334 4 -574 -30 -840
-119 -261 -87 -425 -168 -871 -433 -133 -79 -275 -162 -316 -186 -97 -56 -165
-106 -248 -184 -503 -466 -604 -567 -767 -770 -239 -297 -404 -637 -480 -991
-16 -73 -51 -342 -90 -692 l-63 -573 -53 -112 c-35 -75 -54 -128 -57 -162 -3
-41 54 -492 85 -665 l6 -34 -24 16 c-71 50 -124 -24 -85 -117 17 -41 50 -76
71 -76 9 0 26 11 39 25 l23 25 36 -78 c19 -42 60 -140 91 -217 71 -182 126
-300 170 -369 91 -142 429 -492 901 -931 160 -148 366 -342 459 -430 92 -88
173 -159 180 -158 98 14 169 37 196 64 l30 31 0 -42 c0 -34 -6 -48 -33 -74
-18 -17 -41 -36 -52 -42 -17 -9 -11 -15 55 -54 243 -142 453 -206 750 -230
295 -23 570 -65 865 -131 l179 -41 116 26 c99 22 187 35 428 62 35 5 55 16
101 58 32 29 66 58 76 64 14 7 20 25 23 71 l4 62 24 -22 c22 -21 24 -21 30 -4
7 16 -1 57 -21 120 -8 26 67 -57 103 -112 26 -41 42 -54 42 -34 0 17 51 71 67
71 8 0 17 -9 20 -20 9 -34 21 -13 28 50 4 33 11 60 16 60 5 0 19 -16 30 -35
12 -19 24 -35 29 -35 4 0 13 15 20 33 25 61 36 67 120 67 77 0 77 0 72 -25 -2
-13 -1 -36 2 -50 11 -42 53 -33 120 25 31 27 61 50 66 50 5 0 11 -9 15 -20 10
-33 63 -70 100 -70 52 0 88 20 341 188 380 254 848 594 1277 929 86 68 160
123 163 123 4 0 4 -33 1 -72 l-6 -73 30 93 c28 87 40 105 54 82 3 -5 21 -10
39 -10 34 0 66 27 102 85 34 55 106 146 158 199 57 58 156 139 163 132 8 -7
-118 -307 -201 -481 -171 -354 -330 -600 -586 -905 -90 -106 -97 -119 -102
-166 -6 -62 -34 -121 -71 -148 -21 -15 -49 -21 -125 -26 -69 -4 -106 -11 -129
-25 -42 -24 -46 -38 -28 -82 8 -19 15 -37 15 -39 0 -2 -16 8 -36 21 -24 17
-51 25 -78 25 -56 0 -226 -57 -226 -76 0 -8 20 -36 45 -63 54 -58 95 -142 95
-196 l-1 -40 -72 78 -72 78 -50 -35 c-68 -46 -130 -106 -277 -265 l-123 -135
-4 -88 -3 -89 -82 7 c-145 12 -186 -25 -186 -166 0 -50 -4 -70 -13 -70 -22 0
-75 44 -117 98 -56 71 -74 79 -158 63 -115 -22 -223 -51 -268 -73 -42 -19 -44
-21 -38 -57 13 -84 -65 -81 -236 8 -170 88 -290 111 -402 77 -42 -12 -54 -11
-130 9 -276 74 -643 82 -1121 25 -89 -11 -165 -20 -169 -20 -5 0 -8 24 -8 54
0 76 -6 90 -31 65 -30 -30 -66 -23 -148 29 -98 63 -228 134 -476 262 -192 99
-202 103 -260 101 -143 -3 -351 68 -460 159 -104 88 -149 100 -380 109 -174 7
-195 10 -255 35 -224 92 -377 317 -445 656 -9 47 -23 96 -30 110 -21 40 -81
92 -114 99 -30 6 -33 12 -79 146 -71 205 -163 432 -323 791 -211 476 -267 609
-284 674 -10 38 -15 105 -15 193 l0 135 38 -5 c79 -11 89 38 47 235 -50 237
-128 450 -267 730 l-91 183 32 202 c78 490 93 579 117 687 54 239 141 449 250
601 66 91 167 196 420 436 211 200 261 262 299 370 68 192 90 220 470 586 272
261 421 392 477 417 48 22 112 25 253 11 50 -5 110 -6 134 -3 40 7 44 10 60
53 27 69 86 153 148 208 110 98 222 138 360 127 115 -10 132 0 343 200 72 68
102 83 127 62 13 -10 15 -27 9 -101 l-6 -87 73 48 c154 103 258 152 592 278
121 46 221 83 222 84 2 0 22 -7 45 -17z m1853 -297 c181 -37 422 -121 615
-214 259 -125 455 -264 655 -466 l141 -141 457 -732 456 -732 40 -318 c49
-387 60 -521 63 -725 2 -137 5 -158 19 -158 18 0 46 28 83 86 15 23 38 46 51
52 14 7 25 10 25 8 0 -2 -16 -52 -35 -111 -59 -178 -114 -489 -131 -732 -4
-52 -11 -90 -15 -86 -29 29 -28 318 1 522 5 36 10 79 10 95 l0 30 -28 -27
c-57 -55 -100 -22 -109 83 -6 60 -6 62 -64 105 -95 74 -201 214 -298 397 l-51
95 20 78 c37 145 18 289 -50 382 -18 24 -69 70 -114 102 -102 74 -140 128
-201 283 -60 155 -85 263 -85 371 0 48 -2 87 -5 87 -3 0 -41 -18 -85 -40 -104
-52 -156 -60 -206 -30 -21 12 -216 149 -433 304 -565 403 -811 568 -1091 728
-93 53 -98 54 -210 65 -204 21 -352 73 -476 167 -75 57 -115 108 -130 167 -21
79 3 143 71 195 31 23 50 28 142 37 99 9 154 5 213 -17 10 -4 20 5 31 26 27
55 61 72 157 79 140 11 489 2 567 -15z m-3158 -2852 c13 -8 34 -36 47 -62 40
-79 463 -1063 620 -1445 115 -278 155 -363 177 -381 18 -15 58 -31 105 -41 79
-18 94 -32 94 -88 -1 -52 10 -51 -402 -52 -217 0 -388 3 -395 8 -19 14 -16 72
5 95 13 16 37 24 96 32 103 14 120 28 111 94 -14 111 -198 628 -232 654 -24
17 -727 17 -763 -1 -30 -15 -134 -217 -210 -411 -86 -215 -97 -291 -50 -316
11 -6 56 -16 102 -22 91 -13 118 -30 118 -77 0 -57 5 -56 -385 -55 -355 0
-359 0 -373 22 -16 24 -9 74 12 92 8 6 50 17 95 25 44 8 89 19 100 25 31 16
65 68 101 150 201 462 835 1707 893 1752 39 30 90 31 134 2z m2992 -48 c7 -8
31 -110 53 -226 44 -229 44 -253 -7 -266 -37 -9 -57 13 -128 141 -34 60 -73
123 -88 140 l-27 30 -266 0 c-204 0 -268 -3 -278 -13 -10 -10 -14 -170 -16
-800 -2 -433 0 -802 3 -819 3 -18 15 -38 26 -43 11 -6 74 -16 140 -22 78 -7
126 -16 135 -25 17 -18 19 -99 2 -109 -7 -4 -205 -8 -441 -8 -416 -1 -430 0
-443 19 -20 28 -17 72 5 94 15 15 40 21 108 25 113 8 160 21 175 49 10 17 13
194 13 819 0 752 -1 798 -18 815 -16 16 -42 18 -293 18 -324 0 -279 21 -379
-176 -38 -75 -76 -136 -90 -145 -29 -19 -60 -11 -82 22 -13 21 -14 33 -4 87
33 169 83 382 92 394 17 20 1791 19 1808 -1z m431 -15 c96 -5 243 -6 325 -2
83 4 156 5 163 3 34 -12 35 -105 2 -122 -10 -5 -55 -14 -99 -19 -45 -5 -88
-14 -96 -21 -13 -11 -15 -115 -13 -841 3 -721 5 -830 18 -843 10 -11 48 -17
124 -22 86 -6 113 -11 128 -26 21 -21 23 -53 5 -87 l-12 -25 -408 0 c-274 -1
-412 2 -417 9 -14 17 -22 88 -12 104 12 17 80 30 163 31 74 0 125 14 133 36
11 28 7 1657 -4 1668 -5 5 -56 13 -111 16 -91 6 -104 9 -121 30 -14 17 -18 33
-14 55 6 30 38 65 60 65 6 0 90 -5 186 -9z m-4700 -2521 c0 -5 -5 -10 -10 -10
-7 0 -10 -30 -8 -82 l3 -83 35 0 35 0 3 83 c2 52 -1 82 -8 82 -5 0 -10 5 -10
10 0 6 16 10 35 10 19 0 35 -4 35 -10 0 -5 -4 -10 -10 -10 -6 0 -10 -34 -10
-82 0 -96 -13 -118 -68 -118 -59 0 -72 21 -72 117 0 49 -4 83 -10 83 -5 0 -10
5 -10 10 0 6 16 10 35 10 19 0 35 -4 35 -10z m252 -95 l37 -70 1 63 c0 35 -4
62 -10 62 -5 0 -10 5 -10 10 0 6 16 10 35 10 19 0 35 -4 35 -10 0 -5 -4 -10
-10 -10 -6 0 -10 -35 -10 -85 0 -78 -2 -85 -20 -85 -15 0 -30 20 -59 78 l-40
77 -1 -62 c0 -38 4 -63 12 -65 21 -7 -3 -28 -33 -28 -19 0 -29 5 -29 15 0 8 5
15 10 15 6 0 10 30 10 70 0 40 -4 70 -10 70 -5 0 -10 5 -10 11 0 6 14 9 33 7
28 -3 36 -11 69 -73z m270 58 c14 -12 18 -31 18 -76 0 -81 -15 -97 -91 -97
-55 0 -81 11 -59 25 13 8 13 145 0 145 -5 0 -10 5 -10 10 0 18 121 12 142 -7z
m198 -13 c0 -16 -4 -30 -10 -30 -5 0 -10 9 -10 20 0 16 -7 20 -35 20 -32 0
-35 -2 -35 -30 0 -28 3 -30 35 -30 19 0 35 -4 35 -10 0 -5 -16 -10 -35 -10
-32 0 -35 -2 -35 -30 0 -28 3 -30 35 -30 24 0 35 5 35 15 0 8 5 15 10 15 6 0
10 -13 10 -30 l0 -30 -64 0 c-39 0 -68 5 -72 12 -4 6 -2 14 4 16 15 5 17 142
2 142 -5 0 -10 5 -10 10 0 6 30 10 70 10 l70 0 0 -30z m178 18 c16 -16 15 -73
0 -99 -11 -18 -10 -23 11 -40 17 -14 21 -23 14 -30 -14 -14 -49 -6 -45 9 5 24
-19 52 -43 52 -18 0 -25 -5 -25 -20 0 -11 5 -20 10 -20 6 0 10 -7 10 -15 0
-10 -10 -15 -30 -15 -20 0 -30 5 -30 15 0 8 5 15 10 15 6 0 10 30 10 70 0 40
-4 70 -10 70 -5 0 -10 5 -10 10 0 14 114 12 128 -2z m290 0 c13 -13 17 -58 4
-58 -4 0 -12 10 -17 23 -7 16 -18 22 -40 22 l-30 0 0 -65 0 -65 33 -3 c27 -3
35 1 39 17 6 25 23 28 23 4 0 -46 -74 -71 -112 -36 -14 12 -18 31 -18 83 0 38
5 71 12 78 7 7 30 12 53 12 23 0 46 -5 53 -12z m122 2 c0 -5 -4 -10 -10 -10
-5 0 -10 -13 -10 -30 0 -29 2 -30 45 -30 43 0 45 1 45 30 0 17 -4 30 -10 30
-5 0 -10 5 -10 10 0 6 16 10 35 10 19 0 35 -4 35 -10 0 -5 -4 -10 -10 -10 -15
0 -13 -137 2 -142 21 -7 -3 -28 -33 -28 -19 0 -29 5 -29 15 0 8 5 15 10 15 6
0 10 14 10 30 0 29 -2 30 -45 30 -43 0 -45 -1 -45 -30 0 -16 5 -30 10 -30 6 0
10 -7 10 -15 0 -10 -10 -15 -29 -15 -30 0 -54 21 -33 28 15 5 17 142 2 142 -5
0 -10 5 -10 10 0 6 16 10 35 10 19 0 35 -4 35 -10z m268 -7 c-2 -25 32 -125
48 -144 17 -19 9 -29 -22 -29 -27 0 -42 19 -24 30 21 13 1 30 -35 30 -38 0
-52 -14 -36 -34 14 -16 4 -26 -25 -26 -25 0 -42 19 -26 29 18 11 54 119 47
141 -6 18 -2 20 34 20 32 0 40 -4 39 -17z m214 0 c22 -20 23 -60 2 -84 -13
-14 -13 -20 -2 -38 7 -12 16 -21 20 -21 5 0 8 -7 8 -15 0 -9 -9 -15 -25 -15
-19 0 -25 5 -25 23 0 28 -17 47 -42 47 -20 0 -25 -36 -6 -42 21 -7 -3 -28 -33
-28 -19 0 -29 5 -29 15 0 8 5 15 10 15 6 0 10 30 10 70 0 40 -4 70 -10 70 -5
0 -10 5 -10 10 0 17 111 12 132 -7z m196 5 c13 -13 17 -58 4 -58 -4 0 -12 10
-17 23 -8 17 -18 22 -45 22 l-35 0 0 -65 0 -65 31 -3 c18 -2 36 3 43 12 14 17
7 36 -15 36 -8 0 -14 5 -14 10 0 6 14 10 30 10 27 0 30 -3 30 -32 0 -43 -25
-68 -68 -68 -55 0 -72 22 -72 93 0 76 16 97 75 97 22 0 46 -5 53 -12z m122 2
c0 -5 -4 -10 -10 -10 -6 0 -10 -30 -10 -70 0 -40 4 -70 10 -70 6 0 10 -7 10
-15 0 -10 -11 -15 -35 -15 -24 0 -35 5 -35 15 0 8 5 15 10 15 6 0 10 30 10 70
0 40 -4 70 -10 70 -5 0 -10 5 -10 10 0 6 16 10 35 10 19 0 35 -4 35 -10z m149
-67 l40 -78 1 68 c0 38 -4 67 -10 67 -5 0 -10 5 -10 10 0 6 16 10 35 10 19 0
35 -4 35 -10 0 -5 -4 -10 -10 -10 -5 0 -10 -37 -12 -82 -3 -74 -5 -83 -22 -83
-14 0 -31 22 -60 75 l-41 75 -3 -60 c-2 -36 1 -61 7 -63 25 -8 10 -32 -19 -32
-20 0 -30 5 -30 15 0 8 5 15 10 15 6 0 10 28 10 64 0 36 -4 68 -10 71 -20 12
-9 25 20 25 27 0 33 -7 69 -77z m253 60 c20 -18 23 -38 8 -48 -6 -3 -15 6 -20
20 -8 22 -15 26 -42 23 l-33 -3 0 -65 0 -65 35 0 c29 0 36 4 38 23 3 17 -2 22
-17 22 -12 0 -21 5 -21 10 0 6 16 10 35 10 32 0 35 -3 35 -28 0 -45 -26 -72
-67 -72 -57 0 -73 22 -73 100 0 38 5 71 12 78 18 18 88 15 110 -5z m286 5 c7
-7 12 -40 12 -77 0 -77 -16 -101 -68 -101 -56 0 -72 22 -72 100 0 38 5 71 12
78 7 7 33 12 58 12 25 0 51 -5 58 -12z m98 -5 c-6 -16 19 -110 34 -126 10 -11
52 107 44 127 -5 13 0 16 25 16 29 0 43 -14 22 -22 -6 -1 -23 -39 -39 -83 -22
-60 -34 -80 -48 -80 -14 0 -26 20 -48 80 -16 44 -33 82 -37 83 -21 8 -6 22 22
22 25 0 30 -3 25 -17z m294 -13 c0 -16 -4 -30 -10 -30 -5 0 -10 9 -10 20 0 16
-7 20 -35 20 -32 0 -35 -2 -35 -30 0 -28 3 -30 35 -30 44 0 46 -18 3 -22 -28
-2 -34 -8 -36 -30 -3 -26 -1 -28 32 -28 25 0 36 4 36 15 0 8 5 15 10 15 6 0
10 -13 10 -30 l0 -30 -65 0 c-51 0 -65 3 -65 15 0 8 5 15 10 15 6 0 10 28 10
64 0 36 -4 68 -10 71 -25 16 -5 25 55 25 l65 0 0 -30z m182 13 c22 -20 23 -60
2 -84 -12 -14 -13 -22 -4 -38 6 -12 15 -21 20 -21 6 0 10 -7 10 -15 0 -9 -9
-15 -23 -15 -17 0 -25 8 -32 33 -7 23 -17 33 -34 35 -22 4 -23 1 -17 -32 7
-35 6 -36 -24 -36 -20 0 -30 5 -30 15 0 8 5 15 10 15 6 0 10 30 10 70 0 40 -4
70 -10 70 -5 0 -10 5 -10 10 0 17 111 12 132 -7z m310 0 c23 -21 25 -118 2
-151 -13 -19 -24 -22 -80 -22 -50 0 -64 3 -64 15 0 8 5 15 10 15 6 0 10 30 10
70 0 40 -4 70 -10 70 -5 0 -10 5 -10 10 0 18 121 12 142 -7z m198 -13 c0 -34
-15 -40 -23 -10 -4 15 -14 20 -36 20 -28 0 -31 -3 -31 -30 0 -28 3 -30 35 -30
19 0 35 -4 35 -10 0 -5 -16 -10 -35 -10 -32 0 -35 -2 -35 -30 0 -28 3 -30 35
-30 24 0 35 5 35 15 0 8 5 15 10 15 6 0 10 -13 10 -30 l0 -30 -70 0 c-56 0
-70 3 -70 15 0 8 5 15 10 15 6 0 10 30 10 70 0 40 -4 70 -10 70 -5 0 -10 5
-10 10 0 6 30 10 70 10 l70 0 0 -30z m120 20 c0 -5 -7 -10 -15 -10 -12 0 -15
-14 -15 -70 l0 -70 30 0 c20 0 30 5 30 15 0 8 7 15 15 15 10 0 15 -10 15 -30
l0 -30 -64 0 c-62 0 -94 14 -62 26 22 9 23 132 1 140 -28 11 -15 24 25 24 22
0 40 -4 40 -10z m160 0 c0 -5 -7 -10 -15 -10 -12 0 -15 -14 -15 -70 0 -57 3
-70 16 -70 9 0 14 -6 12 -12 -3 -7 -20 -13 -38 -13 -18 0 -35 6 -37 13 -3 6 2
12 11 12 23 0 23 128 1 136 -28 11 -15 24 25 24 22 0 40 -4 40 -10z m77 -22
c0 -18 9 -53 20 -78 l20 -45 22 59 c12 32 19 67 16 77 -5 16 -1 19 24 19 29 0
43 -14 22 -22 -4 -1 -21 -39 -37 -83 -23 -62 -34 -80 -49 -80 -14 0 -25 18
-47 80 -16 44 -34 82 -39 83 -20 8 -7 22 19 22 25 0 28 -4 29 -32z m303 8 c0
-32 -20 -44 -27 -17 -4 15 -13 21 -34 21 -26 0 -29 -4 -29 -30 0 -27 3 -30 30
-30 17 0 30 -4 30 -10 0 -5 -13 -10 -30 -10 -27 0 -30 -3 -30 -30 0 -27 3 -30
30 -30 20 0 30 5 30 15 0 8 7 15 16 15 11 0 14 -8 12 -27 -3 -27 -5 -28 -70
-31 -56 -2 -68 0 -68 13 0 8 5 15 10 15 6 0 10 30 10 70 0 40 -4 70 -10 70 -5
0 -10 5 -10 10 0 6 30 10 70 10 68 0 70 -1 70 -24z m172 7 c22 -20 23 -60 2
-84 -12 -14 -13 -22 -4 -38 6 -12 15 -21 20 -21 6 0 10 -7 10 -15 0 -9 -9 -15
-25 -15 -19 0 -25 5 -25 23 0 28 -17 47 -42 47 -19 0 -25 -34 -8 -45 18 -11 0
-25 -31 -25 -19 0 -29 5 -29 15 0 8 5 15 10 15 6 0 10 30 10 70 0 40 -4 70
-10 70 -5 0 -10 5 -10 10 0 17 111 12 132 -7z m138 7 c0 -5 -4 -10 -10 -10 -6
0 -10 -30 -10 -70 0 -40 4 -70 10 -70 6 0 10 -7 10 -15 0 -10 -11 -15 -35 -15
-24 0 -35 5 -35 15 0 8 5 15 10 15 6 0 10 30 10 70 0 40 -4 70 -10 70 -5 0
-10 5 -10 10 0 6 16 10 35 10 19 0 35 -4 35 -10z m149 -67 l40 -78 1 68 c0 38
-4 67 -10 67 -5 0 -10 5 -10 10 0 6 16 10 35 10 19 0 35 -4 35 -10 0 -5 -4
-10 -10 -10 -6 0 -10 -35 -10 -85 0 -78 -2 -85 -20 -85 -14 0 -31 21 -62 78
l-43 77 -3 -60 c-2 -36 1 -61 7 -63 25 -8 10 -32 -19 -32 -20 0 -30 5 -30 15
0 8 5 15 10 15 6 0 10 28 10 64 0 36 -4 68 -10 71 -20 12 -9 25 20 25 27 0 33
-7 69 -77z m253 60 c20 -18 23 -38 8 -48 -6 -3 -15 6 -20 20 -8 22 -15 26 -42
23 l-33 -3 0 -65 0 -65 35 0 c29 0 36 4 38 23 3 17 -2 22 -17 22 -12 0 -21 5
-21 10 0 6 16 10 35 10 33 0 35 -2 35 -32 0 -43 -25 -68 -68 -68 -56 0 -72 22
-72 100 0 38 5 71 12 78 18 18 88 15 110 -5z"/>
<path d="M6260 6265 c0 -3 14 -32 30 -64 17 -32 35 -87 41 -121 11 -68 29 -99
74 -127 60 -37 67 -36 41 5 -13 20 -46 88 -73 151 -46 108 -80 161 -103 161
-5 0 -10 -2 -10 -5z"/>
<path d="M6134 6236 c-15 -24 -14 -27 36 -88 29 -35 56 -67 60 -72 5 -4 -3 29
-17 75 -36 116 -49 130 -79 85z"/>
<path d="M8513 8491 c-24 -26 -323 -596 -323 -616 0 -13 37 -15 318 -13 l317
3 -1 31 c-2 31 -193 490 -237 569 -26 46 -48 54 -74 26z"/>
<path d="M7830 6190 l0 -71 38 3 37 3 0 65 0 65 -37 3 -38 3 0 -71z"/>
<path d="M8217 6254 c-4 -4 -7 -20 -7 -36 0 -25 3 -28 35 -28 39 0 55 21 38
49 -11 17 -54 27 -66 15z"/>
<path d="M8932 6221 c-14 -39 -12 -44 16 -39 17 3 18 6 7 38 l-12 34 -11 -33z"/>
<path d="M9110 6225 c0 -35 1 -36 33 -33 28 3 32 6 32 33 0 27 -4 30 -32 33
-32 3 -33 2 -33 -33z"/>
<path d="M10104 6247 c-3 -8 -4 -39 -2 -68 l3 -54 38 -3 38 -3 -3 68 -3 68
-33 3 c-21 2 -34 -2 -38 -11z"/>
<path d="M10690 6224 c0 -34 1 -35 33 -32 25 2 33 8 35 27 4 26 -12 41 -45 41
-20 0 -23 -5 -23 -36z"/>
<path d="M10990 6189 l0 -70 38 3 37 3 3 59 c3 65 -4 76 -50 76 -28 0 -28 0
-28 -71z"/>
<path d="M12030 6225 c0 -35 1 -36 33 -33 28 3 32 6 32 33 0 27 -4 30 -32 33
-32 3 -33 2 -33 -33z"/>
</g>
</svg>
